<svg xmlns="http://www.w3.org/2000/svg" xmlns:xlink="http://www.w3.org/1999/xlink" width="120" zoomAndPan="magnify" viewBox="0 0 90 30.000001" height="40" preserveAspectRatio="xMidYMid meet" version="1.0"><defs><g/><clipPath id="1153afe21a"><path d="M 1.453125 2.320312 L 27 2.320312 L 27 26.996094 L 1.453125 26.996094 Z M 1.453125 2.320312 " clip-rule="nonzero"/></clipPath><clipPath id="350b0ed20a"><path d="M 1.453125 7 L 14 7 L 14 26.996094 L 1.453125 26.996094 Z M 1.453125 7 " clip-rule="nonzero"/></clipPath><clipPath id="379dcf22ba"><path d="M 77 10 L 88.546875 10 L 88.546875 25 L 77 25 Z M 77 10 " clip-rule="nonzero"/></clipPath></defs><g clip-path="url(#1153afe21a)"><path fill="#0c6d95" d="M 24.847656 25.785156 C 22.820312 26.976562 20.21875 26.269531 19.046875 24.199219 L 19.039062 24.191406 L 11.125 9.660156 C 10.953125 9.335938 10.640625 9.296875 10.523438 9.289062 C 10.40625 9.289062 10.09375 9.316406 9.910156 9.632812 L 3.460938 20.613281 C 3.03125 21.378906 2.96875 22.292969 3.304688 23.121094 C 3.480469 23.539062 3.746094 23.921875 4.09375 24.210938 C 5.460938 25.355469 7.445312 24.945312 8.292969 23.445312 L 13.046875 15.332031 C 13.546875 16.210938 13.546875 17.300781 13.035156 18.175781 L 9.554688 24.191406 C 8.769531 25.578125 7.34375 26.351562 5.875 26.351562 C 5.050781 26.351562 4.230469 26.109375 3.488281 25.597656 C 2.738281 25.09375 2.171875 24.351562 1.871094 23.484375 C 1.453125 22.273438 1.570312 20.96875 2.199219 19.871094 L 2.210938 19.859375 L 8.660156 8.878906 C 9.0625 8.199219 9.765625 7.796875 10.550781 7.808594 C 11.335938 7.816406 12.03125 8.246094 12.40625 8.945312 L 20.316406 23.464844 C 21.085938 24.816406 22.792969 25.28125 24.128906 24.5 C 25.460938 23.714844 25.917969 21.976562 25.152344 20.613281 L 16.691406 5.757812 C 16.453125 5.375 16.179688 5.03125 15.839844 4.722656 C 13.703125 2.832031 9.882812 6.605469 9.882812 6.605469 L 10.660156 5.125 C 11.894531 2.925781 14.433594 2.339844 16.460938 3.542969 C 17.046875 3.886719 17.550781 4.371094 17.914062 4.949219 L 26.402344 19.871094 C 27.582031 21.9375 26.886719 24.59375 24.847656 25.785156 Z M 24.847656 25.785156 " fill-opacity="1" fill-rule="nonzero"/></g><g clip-path="url(#350b0ed20a)"><path fill="#1c9cba" d="M 13.859375 11.597656 C 13.046875 10.109375 11.320312 8.804688 10.230469 9.363281 C 10.203125 9.371094 10.175781 9.390625 10.148438 9.410156 C 10.066406 9.464844 9.992188 9.539062 9.921875 9.652344 L 3.460938 20.613281 C 3.03125 21.378906 2.96875 22.292969 3.304688 23.121094 C 3.480469 23.539062 3.746094 23.921875 4.09375 24.210938 C 5.460938 25.355469 7.445312 24.945312 8.292969 23.445312 L 13.046875 15.332031 C 13.546875 16.210938 13.546875 17.300781 13.035156 18.175781 L 9.554688 24.191406 C 8.769531 25.578125 7.34375 26.351562 5.875 26.351562 C 5.050781 26.351562 4.230469 26.109375 3.488281 25.597656 C 2.738281 25.09375 2.171875 24.351562 1.871094 23.484375 C 1.453125 22.273438 1.570312 20.96875 2.199219 19.871094 L 2.210938 19.859375 L 8.660156 8.878906 C 9.0625 8.199219 9.765625 7.796875 10.550781 7.808594 C 11.335938 7.816406 12.03125 8.246094 12.40625 8.945312 Z M 13.859375 11.597656 " fill-opacity="1" fill-rule="nonzero"/></g><g fill="#0c6d95" fill-opacity="1"><g transform="translate(26.245748, 19.779137)"><g><path d="M 9.515625 -2.824219 C 8.710938 -2.242188 8.421875 -2.789062 8.421875 -3.679688 L 8.421875 -10.816406 C 8.453125 -12.441406 8.09375 -13.128906 7.070312 -13.878906 L 3.988281 -11.332031 L 4.277344 -10.78125 C 5.304688 -11.398438 5.699219 -11.074219 5.714844 -10.011719 L 5.714844 -9.480469 C 4.910156 -9.34375 4.023438 -8.96875 3.046875 -8.300781 C 1.558594 -7.308594 0.410156 -5.578125 0.410156 -3.867188 C 0.410156 -2.226562 1.113281 -0.976562 3.046875 0 L 5.734375 -2.601562 C 5.820312 -1.300781 6.367188 -0.429688 7.070312 0 L 9.910156 -2.292969 Z M 3.371094 -7.292969 C 4.160156 -7.789062 5.082031 -7.71875 5.714844 -6.984375 L 5.714844 -3.679688 L 4.347656 -2.378906 C 2.960938 -3.390625 1.984375 -6.246094 3.371094 -7.292969 Z M 3.371094 -7.292969 "/></g></g></g><g fill="#0c6d95" fill-opacity="1"><g transform="translate(35.944084, 19.779137)"><g><path d="M 14.546875 -2.839844 C 13.742188 -2.257812 13.46875 -2.789062 13.46875 -3.695312 L 13.46875 -6.417969 C 13.488281 -8.078125 13.128906 -9.464844 12.117188 -9.480469 C 11.160156 -9.5 9.875 -8.128906 8.78125 -6.265625 L 8.78125 -6.417969 C 8.796875 -8.042969 8.574219 -9.480469 7.429688 -9.480469 C 6.316406 -9.480469 5.117188 -8.042969 4.003906 -6.144531 L 4.003906 -6.417969 C 4.039062 -8.042969 3.695312 -8.730469 2.671875 -9.480469 L -0.410156 -6.914062 L -0.121094 -6.382812 C 0.890625 -7 1.300781 -6.691406 1.316406 -5.613281 L 1.316406 -2.976562 C 1.316406 -1.472656 1.917969 -0.480469 2.671875 0 L 5.476562 -2.277344 L 5.082031 -2.824219 C 4.296875 -2.242188 4.003906 -2.789062 4.039062 -3.664062 L 4.039062 -4.109375 C 4.808594 -5.632812 5.253906 -6.28125 5.632812 -6.230469 C 6.210938 -6.160156 6.058594 -5.132812 6.074219 -4.742188 L 6.074219 -2.976562 C 6.074219 -1.472656 6.65625 -0.480469 7.429688 0 L 10.234375 -2.277344 L 9.839844 -2.824219 C 9.054688 -2.242188 8.78125 -2.789062 8.796875 -3.664062 L 8.78125 -4.226562 C 9.535156 -5.664062 9.960938 -6.28125 10.335938 -6.246094 C 10.917969 -6.195312 10.75 -5.152344 10.78125 -4.757812 L 10.78125 -2.976562 C 10.78125 -1.488281 11.347656 -0.460938 12.117188 0 L 14.941406 -2.292969 Z M 14.546875 -2.839844 "/></g></g></g><g fill="#0c6d95" fill-opacity="1"><g transform="translate(50.671203, 19.779137)"><g><path d="M 0.375 -10.800781 L 1.011719 -9.910156 L 3.75 -11.671875 L 2.910156 -12.835938 Z M 5.082031 -2.824219 C 4.277344 -2.242188 3.988281 -2.789062 4.023438 -3.664062 L 3.988281 -6.433594 C 4.023438 -8.0625 3.679688 -8.730469 2.652344 -9.480469 L -0.410156 -6.933594 L -0.136719 -6.382812 C 0.871094 -7 1.265625 -6.675781 1.316406 -5.632812 L 1.316406 -2.960938 C 1.316406 -1.453125 1.898438 -0.460938 2.652344 0 L 5.476562 -2.277344 Z M 5.082031 -2.824219 "/></g></g></g><g fill="#0c6d95" fill-opacity="1"><g transform="translate(55.939445, 19.779137)"><g><path d="M 9.839844 -2.824219 C 9.035156 -2.242188 8.761719 -2.789062 8.78125 -3.664062 L 8.761719 -6.417969 C 8.78125 -8.0625 8.421875 -9.5 7.410156 -9.480469 C 6.195312 -9.480469 5.117188 -7.992188 4.003906 -6.074219 L 4.003906 -6.417969 C 4.023438 -8.0625 3.679688 -8.730469 2.671875 -9.480469 L -0.410156 -6.914062 L -0.0859375 -6.332031 C 0.925781 -6.964844 1.285156 -6.640625 1.316406 -5.578125 L 1.316406 -2.960938 C 1.316406 -1.453125 1.898438 -0.460938 2.671875 0 L 5.476562 -2.292969 L 5.082031 -2.824219 C 4.277344 -2.242188 4.003906 -2.789062 4.023438 -3.664062 L 4.023438 -4.109375 C 4.808594 -5.648438 5.101562 -6.28125 5.632812 -6.230469 C 6.210938 -6.160156 6.058594 -5.132812 6.074219 -4.742188 L 6.074219 -2.960938 C 6.058594 -1.453125 6.65625 -0.460938 7.410156 0 L 10.234375 -2.292969 Z M 9.839844 -2.824219 "/></g></g></g><g fill="#0c6d95" fill-opacity="1"><g transform="translate(65.962784, 19.779137)"><g><path d="M 0.375 -10.800781 L 1.011719 -9.910156 L 3.75 -11.671875 L 2.910156 -12.835938 Z M 5.082031 -2.824219 C 4.277344 -2.242188 3.988281 -2.789062 4.023438 -3.664062 L 3.988281 -6.433594 C 4.023438 -8.0625 3.679688 -8.730469 2.652344 -9.480469 L -0.410156 -6.933594 L -0.136719 -6.382812 C 0.871094 -7 1.265625 -6.675781 1.316406 -5.632812 L 1.316406 -2.960938 C 1.316406 -1.453125 1.898438 -0.460938 2.652344 0 L 5.476562 -2.277344 Z M 5.082031 -2.824219 "/></g></g></g><g fill="#0c6d95" fill-opacity="1"><g transform="translate(71.231027, 19.779137)"><g><path d="M 7.222656 -10.0625 L 9.277344 -11.945312 C 9.070312 -12.785156 7.308594 -13.878906 6.296875 -13.878906 L 4.519531 -12.203125 C 4.347656 -12.921875 3.972656 -13.367188 3.285156 -13.878906 L 0.222656 -11.3125 L 0.511719 -10.75 C 1.539062 -11.398438 1.933594 -11.054688 1.949219 -9.996094 L 1.949219 -9.480469 L 1.4375 -9.480469 L -0.171875 -8.285156 L -0.171875 -7.496094 L 1.949219 -7.496094 L 1.949219 -2.976562 C 1.949219 -1.453125 2.53125 -0.480469 3.285156 0 L 6.128906 -2.292969 L 5.734375 -2.824219 C 4.929688 -2.257812 4.65625 -2.789062 4.65625 -3.679688 L 4.65625 -7.496094 L 5.683594 -7.496094 L 7.085938 -8.832031 L 7.085938 -9.480469 L 4.65625 -9.480469 L 4.65625 -11.054688 L 5.167969 -11.554688 C 5.664062 -11.570312 6.519531 -10.972656 7.222656 -10.0625 Z M 7.222656 -10.0625 "/></g></g></g><g clip-path="url(#379dcf22ba)"><g fill="#0c6d95" fill-opacity="1"><g transform="translate(77.970271, 19.779137)"><g><path d="M 7.839844 -2.328125 C 10.542969 -5.597656 9.449219 -9.5 7.632812 -9.480469 L 4.65625 -7.324219 L 4.996094 -6.726562 C 6.863281 -7.855469 7.257812 -4.347656 6.554688 -2.753906 C 5.03125 -3.664062 4.175781 -9.5 2.328125 -9.480469 L -0.410156 -6.914062 L -0.136719 -6.367188 C 1.625 -7.90625 2.550781 -3.132812 3.886719 -1.027344 C -0.410156 -0.015625 -0.90625 2.464844 0.359375 3.59375 C 1.710938 4.773438 5.015625 0.976562 7.839844 -2.328125 Z M 1.675781 1.695312 C 1.25 1.128906 2.414062 -0.238281 3.972656 -0.238281 C 3.972656 0.511719 2.070312 2.070312 1.675781 1.695312 Z M 1.675781 1.695312 "/></g></g></g></g></svg>